<svg aria-hidden="true" style="width:0;height:0;position:absolute;overflow:hidden" xmlns="http://www.w3.org/2000/svg"><defs><symbol id="icon-wi-fi" viewBox="0 0 32 32"><path d="M0 0v5.818c14.444 0 26.182 11.738 26.182 26.182H32C32 14.327 17.673 0 0 0zm0 10.182V16c8.829 0 16 7.171 16 16h5.818c0-12.044-9.775-21.818-21.818-21.818zm4.364 13.091a4.36 4.36 0 0 0-3.086 7.448 4.364 4.364 0 1 0 3.086-7.448z"/></symbol><symbol id="icon-mail" viewBox="0 0 40 32"><path d="M8.081.991v5.425L.596 9.111c-.482.173-.721.739-.531 1.256L4.49 22.394v8.605c0 .266.107.52.296.708s.447.293.716.293h28.52c.268 0 .526-.105.716-.293s.296-.443.296-.708l.001-4.93 4.456-16.455c.144-.532-.144-1.078-.64-1.206l-7.408-1.971V.992c-.002-.263-.109-.515-.298-.701s-.444-.29-.711-.289H9.091c-.267 0-.522.104-.712.289s-.297.437-.3.701zm15.364 3.316-.766-2.082c-.191-.518-.741-.799-1.223-.625L9.465 5.918V1.367h20.596v4.701l-6.615-1.76zm11.298 4.651a1.017 1.017 0 0 0-.716-.293h-8.978l-1.026-2.79 14.038 3.736-3.024 11.165.002-11.11a.998.998 0 0 0-.296-.708zM1.491 10.242l3.178-1.144a.991.991 0 0 0-.179.568v8.727l-2.999-8.151zm20.015-7.207 2.072 5.63H5.873l15.633-5.63zm8.258 14.042a.462.462 0 0 1-.172.034h-8.535v-2.222h8.535c.119 0 .233.047.318.13s.132.196.132.314v1.333a.434.434 0 0 1-.131.314.466.466 0 0 1-.146.097zm.145 8.348a.451.451 0 0 1-.317.13h-8.535v-2.222h8.535c.119 0 .233.047.318.13s.132.196.132.314v1.334a.442.442 0 0 1-.132.314zm1.348-4.223a.454.454 0 0 1-.318.13h-9.883V19.11h9.883c.119 0 .233.047.318.13s.132.196.132.314v1.333a.438.438 0 0 1-.132.314zm-12.677-.858c0 3.046-2.047 5.212-5.161 5.212-.713.008-1.421-.123-2.083-.387s-1.263-.656-1.771-1.152c-.507-.496-.91-1.087-1.185-1.738a5.284 5.284 0 0 1 1.185-5.85 5.417 5.417 0 0 1 3.854-1.539 5.21 5.21 0 0 1 3.607 1.386l-1.538 1.522a2.945 2.945 0 0 0-2.068-.8c-1.761 0-3.192 1.477-3.192 3.222s1.428 3.222 3.192 3.222c1.583 0 2.667-.885 2.906-2.106H13.42v-2.003h5.075c.055.334.084.672.085 1.01z"/></symbol><symbol id="icon-youtube" viewBox="0 0 48 32"><path d="M40.561.955C37.01 0 22.769 0 22.769 0S8.529 0 4.977.955A5.716 5.716 0 0 0 .951 4.997C-.001 8.562-.001 16-.001 16s0 7.438.952 11.003a5.716 5.716 0 0 0 4.026 4.042C8.528 32 22.769 32 22.769 32s14.24 0 17.792-.955a5.716 5.716 0 0 0 4.026-4.042c.951-3.565.951-11.003.951-11.003s0-7.438-.951-11.003A5.716 5.716 0 0 0 40.561.955zM30.009 16l-11.902 6.753V9.247l11.902 6.754z"/></symbol><symbol id="icon-insta" viewBox="0 0 32 32"><path d="M9.374.112c-1.702.08-2.865.352-3.881.751-1.052.41-1.943.96-2.83 1.85S1.23 4.495.823 5.549C.429 6.568.162 7.731.087 9.434s-.092 2.251-.084 6.596c.008 4.345.028 4.89.11 6.596.081 1.702.352 2.864.751 3.881.411 1.052.96 1.943 1.851 2.83s1.782 1.432 2.838 1.84c1.018.393 2.181.662 3.884.736s2.251.092 6.595.084c4.344-.008 4.891-.028 6.597-.109s2.863-.354 3.88-.751c1.052-.411 1.944-.96 2.831-1.851s1.432-1.784 1.839-2.838c.394-1.018.662-2.181.736-3.883.075-1.708.092-2.253.084-6.597s-.028-4.889-.109-6.595-.352-2.865-.751-3.882c-.411-1.052-.96-1.942-1.85-2.83S27.505 1.227 26.452.822C25.434.428 24.271.16 22.568.086s-2.251-.092-6.597-.084-4.889.027-6.596.11zm.186 28.924c-1.56-.068-2.407-.327-2.972-.544-.748-.288-1.28-.636-1.843-1.193s-.908-1.092-1.2-1.837c-.219-.565-.483-1.41-.556-2.971-.079-1.686-.096-2.192-.105-6.464s.007-4.777.081-6.464c.067-1.559.327-2.407.544-2.971.288-.748.635-1.28 1.193-1.842s1.091-.908 1.838-1.2c.564-.22 1.41-.482 2.969-.556 1.687-.08 2.193-.096 6.464-.105s4.778.007 6.466.081c1.559.068 2.407.326 2.971.544.748.288 1.28.634 1.842 1.193s.909 1.09 1.201 1.838c.221.562.482 1.408.556 2.968.08 1.687.099 2.193.106 6.464s-.007 4.778-.081 6.464c-.068 1.56-.327 2.407-.544 2.973-.288.747-.635 1.28-1.194 1.842s-1.091.908-1.838 1.2c-.563.22-1.41.482-2.968.557-1.687.079-2.193.096-6.466.105s-4.777-.008-6.464-.081zM22.604 7.449a1.917 1.917 0 0 0 1.189 1.772 1.916 1.916 0 0 0 2.092-.42c.268-.269.45-.612.524-.984s.035-.759-.112-1.109a1.916 1.916 0 0 0-1.776-1.182 1.918 1.918 0 0 0-1.916 1.923zM7.785 16.016c.009 4.538 3.694 8.208 8.231 8.199s8.209-3.694 8.201-8.231a8.216 8.216 0 0 0-16.431.032zm2.882-.006a5.336 5.336 0 0 1 6.364-5.244 5.334 5.334 0 1 1-6.364 5.243z"/></symbol><symbol id="icon-twitter" viewBox="0 0 40 32"><path d="M38.285 3.883c-1.365.588-2.848 1.012-4.378 1.177A7.581 7.581 0 0 0 37.249.87a14.974 14.974 0 0 1-4.825 1.836A7.585 7.585 0 0 0 26.869.305a7.6 7.6 0 0 0-7.603 7.603c0 .588.071 1.177.188 1.742A21.616 21.616 0 0 1 3.777 1.694a7.55 7.55 0 0 0-1.036 3.837 7.598 7.598 0 0 0 3.39 6.332 7.655 7.655 0 0 1-3.437-.965v.094a7.604 7.604 0 0 0 6.097 7.462 8.03 8.03 0 0 1-2.001.259c-.494 0-.965-.047-1.436-.118a7.617 7.617 0 0 0 7.109 5.273 15.226 15.226 0 0 1-9.439 3.248 15.63 15.63 0 0 1-1.836-.094 21.482 21.482 0 0 0 11.675 3.413c13.982 0 21.632-11.581 21.632-21.632 0-.33 0-.659-.024-.989a16.342 16.342 0 0 0 3.813-3.931z"/></symbol><symbol id="icon-facebook" viewBox="0 0 16 32"><path d="M15.752 1.051C15.275.98 13.633.839 11.727.839c-3.99 0-6.726 2.436-6.726 6.903v3.849H.499v5.226h4.502v13.399h5.402V16.817h4.484l.689-5.226h-5.173V8.254c0-1.501.406-2.542 2.578-2.542h2.772V1.051z"/></symbol><symbol id="icon-time" viewBox="0 0 32 32"><path d="M18.667 8.667A.659.659 0 0 0 18 8h-1.333a.659.659 0 0 0-.667.667V16h-4.667a.659.659 0 0 0-.667.667V18c0 .375.292.667.667.667H18a.659.659 0 0 0 .667-.667V8.667zM27.333 16c0 6.25-5.083 11.333-11.333 11.333S4.667 22.25 4.667 16 9.75 4.667 16 4.667 27.333 9.75 27.333 16zM32 16c0-8.833-7.167-16-16-16S0 7.167 0 16s7.167 16 16 16 16-7.167 16-16z"/></symbol><symbol id="icon-person" viewBox="0 0 32 32"><path d="M28.308 24.981c0-5.058-1.25-10.904-6.288-10.904a8.589 8.589 0 0 1-12.038 0c-5.038 0-6.288 5.846-6.288 10.904 0 2.808 1.846 5.096 4.096 5.096h16.423c2.25 0 4.096-2.288 4.096-5.096zM23.385 7.923c0-4.077-3.308-7.385-7.385-7.385S8.615 3.846 8.615 7.923s3.308 7.385 7.385 7.385S23.385 12 23.385 7.923z"/></symbol><symbol id="icon-apple" viewBox="0 0 32 32"><path d="M20.485 20.691c-.868-.265-1.647-.882-2.323-1.853s-1.015-2.074-1.015-3.279a5.23 5.23 0 0 1 .956-3.044c.353-.515.912-1.088 1.676-1.735-.5-.618-1.015-1.118-1.529-1.471-.912-.632-1.956-.956-3.132-.956-.721 0-1.574.176-2.544.5-.971.338-1.676.5-2.103.5-.338 0-1.015-.147-2.029-.441-1.029-.294-1.882-.441-2.603-.441-1.691 0-3.074.706-4.176 2.118-1.103 1.426-1.662 3.25-1.662 5.5 0 2.412.735 4.868 2.162 7.397 1.456 2.529 2.912 3.809 4.426 3.809.485 0 1.132-.162 1.941-.5.794-.324 1.5-.485 2.088-.485.603 0 1.353.147 2.221.471.882.309 1.559.471 2.059.471 1.25 0 2.515-.956 3.779-2.882.853-1.279 1.441-2.515 1.809-3.676zm-5.529-17.25c0-.103-.015-.191-.015-.294-.015-.088-.044-.191-.074-.324-1.706.397-2.941 1.118-3.676 2.176s-1.118 2.324-1.147 3.779c.691-.059 1.191-.147 1.529-.25.529-.176 1.059-.529 1.588-1.059.618-.618 1.074-1.294 1.368-2.029.279-.721.426-1.397.426-2z"/></symbol><symbol id="icon-android" viewBox="0 0 32 32"><path d="M8.597 10.264c-.292 0-.528-.25-.528-.542s.236-.542.528-.542a.542.542 0 0 1 0 1.084zm5.861 0a.542.542 0 0 1 0-1.084c.292 0 .528.25.528.542s-.236.542-.528.542zM3.181 12.819c-.792 0-1.431.639-1.431 1.417v5.972c0 .792.639 1.431 1.431 1.431S4.598 21 4.598 20.208v-5.972c0-.778-.639-1.417-1.417-1.417zm14.722.264H5.153v9.25c0 .847.681 1.528 1.528 1.528h1.028l.014 3.153c0 .792.639 1.431 1.417 1.431.792 0 1.431-.639 1.431-1.431v-3.153h1.917v3.153c0 .792.639 1.431 1.431 1.431s1.431-.639 1.431-1.431v-3.153h1.042c.833 0 1.514-.681 1.514-1.528v-9.25zm-3.222-5.625.986-1.819a.202.202 0 0 0-.069-.278c-.097-.042-.222-.014-.278.083l-1 1.833a6.88 6.88 0 0 0-2.792-.583c-1 0-1.944.208-2.792.583l-1-1.833c-.056-.097-.181-.125-.278-.083a.202.202 0 0 0-.069.278l.986 1.819c-1.958 1-3.278 2.917-3.278 5.125h12.847c0-2.208-1.32-4.125-3.264-5.125zm6.625 6.778c0-.792-.639-1.417-1.431-1.417-.778 0-1.417.625-1.417 1.417v5.972c0 .792.639 1.431 1.417 1.431.792 0 1.431-.639 1.431-1.431v-5.972z"/></symbol><symbol id="icon-pot" viewBox="0 0 32 32"><path d="M20.912 7.162a.953.953 0 0 0-.868-.574H1.221a.953.953 0 0 0-.868.574.923.923 0 0 0 .206 1.029l7.25 7.25v7.147c0 .25.103.485.279.662l3.765 3.765a.879.879 0 0 0 .662.279c.118 0 .25-.029.368-.074a.953.953 0 0 0 .574-.868V15.44l7.25-7.25a.925.925 0 0 0 .206-1.029z"/></symbol><symbol id="icon-phone" viewBox="0 0 32 32"><path d="M12.619 27.886c0 1.021-.857 1.857-1.905 1.857s-1.905-.836-1.905-1.857.857-1.857 1.905-1.857 1.905.836 1.905 1.857zm4.952-3.715c0 .395-.357.743-.762.743H4.618c-.405 0-.762-.348-.762-.743V7.828c0-.395.357-.743.762-.743h12.191c.405 0 .762.348.762.743v16.343zM13 4.486a.371.371 0 0 1-.381.371H8.81a.371.371 0 1 1 0-.742h3.809c.214 0 .381.162.381.371zm6.857-.372c0-1.625-1.381-2.971-3.048-2.971H4.618c-1.667 0-3.048 1.346-3.048 2.971v23.771c0 1.625 1.381 2.971 3.048 2.971h12.191c1.667 0 3.048-1.346 3.048-2.971V4.114z"/></symbol><symbol id="icon-search" viewBox="0 0 32 32"><path fill="#e1541b" style="fill:var(--color3,#e1541b)" d="M22.302 13.714c0 4.643-3.778 8.421-8.421 8.421S5.46 18.357 5.46 13.714c0-4.643 3.778-8.421 8.421-8.421s8.421 3.778 8.421 8.421zm9.624 15.639a2.42 2.42 0 0 0-.696-1.692l-6.447-6.447a13.199 13.199 0 0 0 2.331-7.5c0-7.312-5.921-13.233-13.233-13.233S.648 6.402.648 13.714s5.921 13.233 13.233 13.233c2.669 0 5.301-.808 7.5-2.331l6.447 6.428a2.36 2.36 0 0 0 1.692.714 2.423 2.423 0 0 0 2.406-2.406z"/></symbol><symbol id="icon-info-burger" viewBox="0 0 40 32"><path d="M40 27.324c0-.724-.6-1.323-1.324-1.323H1.323c-.724 0-1.324.6-1.324 1.323v2.647c0 .724.6 1.323 1.324 1.323h37.353c.724 0 1.324-.6 1.324-1.323v-2.647zm0-12.647c0-.724-.6-1.324-1.324-1.324H1.323c-.724 0-1.324.6-1.324 1.324v2.647c0 .724.6 1.324 1.324 1.324h37.353c.724 0 1.324-.6 1.324-1.324v-2.647zM40 2.03c0-.724-.6-1.324-1.324-1.324H1.323c-.724 0-1.324.6-1.324 1.324v2.647c0 .724.6 1.324 1.324 1.324h37.353c.724 0 1.324-.6 1.324-1.324V2.03z"/></symbol><symbol id="icon-close-info" viewBox="0 0 29 32"><path d="M26.363 26.169a.904.904 0 0 0 0-1.269L5.435 3.972a.904.904 0 0 0-1.269 0L2.897 5.241a.904.904 0 0 0 0 1.269l20.928 20.928a.904.904 0 0 0 1.269 0l1.269-1.269z"/><path d="M4.165 27.439a.904.904 0 0 0 1.269 0L26.362 6.511a.904.904 0 0 0 0-1.269l-1.269-1.269a.904.904 0 0 0-1.269 0L2.896 24.901a.904.904 0 0 0 0 1.269l1.269 1.269z"/></symbol><symbol id="icon-burger" viewBox="0 0 29 32"><path fill="#2a86e5" style="fill:var(--color2,#2a86e5)" d="M28.192 24.45a.904.904 0 0 0-.898-.898H1.964a.904.904 0 0 0-.898.898v1.795c0 .491.407.898.898.898h25.33a.904.904 0 0 0 .898-.898V24.45zm0-9.643a.904.904 0 0 0-.898-.898H1.964a.904.904 0 0 0-.898.898v1.795c0 .491.407.898.898.898h25.33a.904.904 0 0 0 .898-.898v-1.795zm0-9.643a.904.904 0 0 0-.898-.898H1.964a.904.904 0 0 0-.898.898v1.795c0 .491.407.898.898.898h25.33a.904.904 0 0 0 .898-.898V5.164z"/></symbol><symbol id="icon-close" viewBox="0 0 29 32"><path fill="#2a86e5" style="fill:var(--color2,#2a86e5)" d="M26.363 26.169a.904.904 0 0 0 0-1.269L5.435 3.972a.904.904 0 0 0-1.269 0L2.897 5.241a.904.904 0 0 0 0 1.269l20.928 20.928a.904.904 0 0 0 1.269 0l1.269-1.269z"/><path fill="#2a86e5" style="fill:var(--color2,#2a86e5)" d="M4.165 27.439a.904.904 0 0 0 1.269 0L26.362 6.511a.904.904 0 0 0 0-1.269l-1.269-1.269a.904.904 0 0 0-1.269 0L2.896 24.901a.904.904 0 0 0 0 1.269l1.269 1.269z"/></symbol><symbol id="icon-download" viewBox="0 0 36 32"><path d="M34.292 21.58a1.899 1.899 0 0 0-1.395-.574h-9.518l-2.79 2.79c-.793.766-1.723 1.149-2.79 1.149s-1.997-.383-2.79-1.149l-2.769-2.79H2.701c-.547 0-1.012.192-1.395.574s-.574.848-.574 1.395v6.564c0 .547.191 1.012.574 1.395s.848.574 1.395.574h30.195c.547 0 1.012-.191 1.395-.574s.575-.848.575-1.395v-6.564c0-.547-.191-1.012-.575-1.395zM26.6 28.493c-.26.26-.568.39-.924.39s-.663-.13-.923-.39-.389-.567-.389-.923.13-.663.389-.923c.26-.26.567-.39.923-.39s.663.13.924.39c.26.259.39.567.39.923s-.13.663-.39.923zm5.251 0c-.26.26-.567.39-.923.39s-.663-.13-.923-.39-.389-.567-.389-.923.13-.663.389-.923c.26-.26.567-.39.923-.39s.663.13.923.39c.26.259.39.567.39.923s-.13.663-.39.923z"/><path d="M16.877 21.929c.246.26.554.39.923.39s.677-.13.923-.39l9.19-9.19c.424-.397.52-.875.287-1.436-.232-.533-.636-.8-1.21-.8h-5.251v-9.19c0-.355-.13-.663-.39-.923S20.781 0 20.426 0h-5.252c-.355 0-.663.13-.923.39s-.39.567-.39.923v9.19H8.61c-.575 0-.978.267-1.21.8-.232.56-.137 1.039.287 1.436l9.19 9.19z"/></symbol><symbol id="icon-like" viewBox="0 0 34 32"><path d="M31.425 4.223C29.658 2.338 27.234 1.3 24.598 1.3c-1.97 0-3.775.613-5.363 1.821a10.853 10.853 0 0 0-2.168 2.227 10.878 10.878 0 0 0-2.168-2.227C13.311 1.913 11.506 1.3 9.536 1.3 6.9 1.3 4.475 2.338 2.708 4.223.962 6.086 0 8.631 0 11.389c0 2.839 1.076 5.438 3.385 8.179 2.066 2.452 5.036 4.941 8.474 7.823 1.174.984 2.505 2.1 3.887 3.288a2.025 2.025 0 0 0 2.639.001c1.382-1.189 2.714-2.305 3.888-3.29 3.439-2.882 6.408-5.37 8.474-7.822 2.31-2.741 3.385-5.34 3.385-8.179 0-2.758-.962-5.303-2.708-7.166z"/></symbol><symbol id="icon-reddit" viewBox="0 0 32 32"><path d="M27.73 12.73c-.987 0-1.855.408-2.493 1.046-2.349-1.625-5.513-2.671-9.02-2.783l1.822-8.211 5.803 1.303a2.583 2.583 0 0 0 2.579 2.579c1.447 0 2.612-1.191 2.612-2.612S27.875 1.44 26.421 1.44c-1.013 0-1.888.612-2.322 1.447l-6.408-1.421c-.322-.086-.638.145-.724.467l-2 9.053c-3.48.145-6.612 1.191-8.967 2.816a3.497 3.497 0 0 0-2.526-1.072c-3.658 0-4.855 4.908-1.507 6.586a7.389 7.389 0 0 0-.171 1.625c0 5.513 6.211 9.98 13.836 9.98 7.658 0 13.868-4.467 13.868-9.98 0-.553-.059-1.132-.204-1.651 3.283-1.684 2.072-6.559-1.566-6.559zM7.276 19.665a2.602 2.602 0 0 1 2.612-2.612c1.421 0 2.579 1.158 2.579 2.612a2.583 2.583 0 0 1-2.579 2.579 2.59 2.59 0 0 1-2.612-2.579zm14.099 6.151c-2.395 2.395-9.151 2.395-11.546 0-.263-.23-.263-.638 0-.901.23-.23.638-.23.868 0 1.829 1.875 7.895 1.908 9.803 0 .23-.23.638-.23.868 0 .27.263.27.671.007.901zm-.053-3.566a2.583 2.583 0 0 1-2.579-2.579c0-1.447 1.158-2.612 2.579-2.612a2.602 2.602 0 0 1 2.612 2.612 2.603 2.603 0 0 1-2.612 2.579z"/></symbol><symbol id="icon-pinterest" viewBox="0 0 30 32"><path d="M15.19.929C9.083.929 3.047 5 3.047 11.59c0 4.191 2.357 6.571 3.786 6.571.589 0 .929-1.643.929-2.107 0-.554-1.411-1.732-1.411-4.036 0-4.786 3.643-8.179 8.357-8.179 4.054 0 7.053 2.304 7.053 6.536 0 3.161-1.268 9.089-5.375 9.089-1.482 0-2.75-1.071-2.75-2.607 0-2.25 1.571-4.429 1.571-6.75 0-3.94-5.589-3.226-5.589 1.536 0 1 .125 2.107.571 3.018-.821 3.536-2.5 8.804-2.5 12.447 0 1.125.161 2.232.268 3.357.202.226.101.202.411.089 3-4.107 2.893-4.911 4.25-10.286.732 1.393 2.625 2.143 4.125 2.143 6.321 0 9.161-6.161 9.161-11.714 0-5.911-5.107-9.768-10.714-9.768z"/></symbol><symbol id="icon-telegram" viewBox="0 0 40 32"><path d="M3.68 13.772c10.186-4.554 16.995-7.497 20.372-8.941C33.748.721 35.763 0 37.071 0c.272 0 .926.056 1.362.389.327.278.436.666.49.944s.109.889.054 1.388c-.545 5.609-2.778 19.326-3.976 25.601-.49 2.666-1.471 3.554-2.397 3.665-2.015.167-3.595-1.388-5.556-2.666-3.05-2.055-4.794-3.332-7.79-5.331-3.432-2.332-1.198-3.61.763-5.665.49-.555 9.478-8.83 9.642-9.607 0-.111.054-.444-.163-.611s-.49-.111-.708-.056c-.327.056-5.229 3.388-14.762 9.941-1.416 1-2.669 1.444-3.813 1.444-1.253 0-3.65-.722-5.447-1.333-2.179-.722-3.922-1.111-3.759-2.332.163-.666 1.035-1.333 2.669-1.999z"/></symbol></defs></svg>