<svg aria-hidden="true" style="width:0;height:0;position:absolute;overflow:hidden" xmlns="http://www.w3.org/2000/svg"><defs><symbol id="icon-time" viewBox="0 0 32 32"><path d="M18.667 8.667A.659.659 0 0 0 18 8h-1.333a.659.659 0 0 0-.667.667V16h-4.667a.659.659 0 0 0-.667.667V18c0 .375.292.667.667.667H18a.659.659 0 0 0 .667-.667V8.667zM27.333 16c0 6.25-5.083 11.333-11.333 11.333S4.667 22.25 4.667 16 9.75 4.667 16 4.667 27.333 9.75 27.333 16zM32 16c0-8.833-7.167-16-16-16S0 7.167 0 16s7.167 16 16 16 16-7.167 16-16z"/></symbol><symbol id="icon-person" viewBox="0 0 32 32"><path d="M28.308 24.981c0-5.058-1.25-10.904-6.288-10.904a8.589 8.589 0 0 1-12.038 0c-5.038 0-6.288 5.846-6.288 10.904 0 2.808 1.846 5.096 4.096 5.096h16.423c2.25 0 4.096-2.288 4.096-5.096zM23.385 7.923c0-4.077-3.308-7.385-7.385-7.385S8.615 3.846 8.615 7.923s3.308 7.385 7.385 7.385S23.385 12 23.385 7.923z"/></symbol><symbol id="icon-apple" viewBox="0 0 32 32"><path d="M20.485 20.691c-.868-.265-1.647-.882-2.323-1.853s-1.015-2.074-1.015-3.279a5.23 5.23 0 0 1 .956-3.044c.353-.515.912-1.088 1.676-1.735-.5-.618-1.015-1.118-1.529-1.471-.912-.632-1.956-.956-3.132-.956-.721 0-1.574.176-2.544.5-.971.338-1.676.5-2.103.5-.338 0-1.015-.147-2.029-.441-1.029-.294-1.882-.441-2.603-.441-1.691 0-3.074.706-4.176 2.118-1.103 1.426-1.662 3.25-1.662 5.5 0 2.412.735 4.868 2.162 7.397 1.456 2.529 2.912 3.809 4.426 3.809.485 0 1.132-.162 1.941-.5.794-.324 1.5-.485 2.088-.485.603 0 1.353.147 2.221.471.882.309 1.559.471 2.059.471 1.25 0 2.515-.956 3.779-2.882.853-1.279 1.441-2.515 1.809-3.676zm-5.529-17.25c0-.103-.015-.191-.015-.294-.015-.088-.044-.191-.074-.324-1.706.397-2.941 1.118-3.676 2.176s-1.118 2.324-1.147 3.779c.691-.059 1.191-.147 1.529-.25.529-.176 1.059-.529 1.588-1.059.618-.618 1.074-1.294 1.368-2.029.279-.721.426-1.397.426-2z"/></symbol><symbol id="icon-android" viewBox="0 0 32 32"><path d="M8.597 10.264c-.292 0-.528-.25-.528-.542s.236-.542.528-.542a.542.542 0 0 1 0 1.084zm5.861 0a.542.542 0 0 1 0-1.084c.292 0 .528.25.528.542s-.236.542-.528.542zM3.181 12.819c-.792 0-1.431.639-1.431 1.417v5.972c0 .792.639 1.431 1.431 1.431S4.598 21 4.598 20.208v-5.972c0-.778-.639-1.417-1.417-1.417zm14.722.264H5.153v9.25c0 .847.681 1.528 1.528 1.528h1.028l.014 3.153c0 .792.639 1.431 1.417 1.431.792 0 1.431-.639 1.431-1.431v-3.153h1.917v3.153c0 .792.639 1.431 1.431 1.431s1.431-.639 1.431-1.431v-3.153h1.042c.833 0 1.514-.681 1.514-1.528v-9.25zm-3.222-5.625.986-1.819a.202.202 0 0 0-.069-.278c-.097-.042-.222-.014-.278.083l-1 1.833a6.88 6.88 0 0 0-2.792-.583c-1 0-1.944.208-2.792.583l-1-1.833c-.056-.097-.181-.125-.278-.083a.202.202 0 0 0-.069.278l.986 1.819c-1.958 1-3.278 2.917-3.278 5.125h12.847c0-2.208-1.32-4.125-3.264-5.125zm6.625 6.778c0-.792-.639-1.417-1.431-1.417-.778 0-1.417.625-1.417 1.417v5.972c0 .792.639 1.431 1.417 1.431.792 0 1.431-.639 1.431-1.431v-5.972z"/></symbol><symbol id="icon-pot" viewBox="0 0 32 32"><path d="M20.912 7.162a.953.953 0 0 0-.868-.574H1.221a.953.953 0 0 0-.868.574.923.923 0 0 0 .206 1.029l7.25 7.25v7.147c0 .25.103.485.279.662l3.765 3.765a.879.879 0 0 0 .662.279c.118 0 .25-.029.368-.074a.953.953 0 0 0 .574-.868V15.44l7.25-7.25a.925.925 0 0 0 .206-1.029z"/></symbol><symbol id="icon-phone" viewBox="0 0 32 32"><path d="M12.619 27.886c0 1.021-.857 1.857-1.905 1.857s-1.905-.836-1.905-1.857.857-1.857 1.905-1.857 1.905.836 1.905 1.857zm4.952-3.715c0 .395-.357.743-.762.743H4.618c-.405 0-.762-.348-.762-.743V7.828c0-.395.357-.743.762-.743h12.191c.405 0 .762.348.762.743v16.343zM13 4.486a.371.371 0 0 1-.381.371H8.81a.371.371 0 1 1 0-.742h3.809c.214 0 .381.162.381.371zm6.857-.372c0-1.625-1.381-2.971-3.048-2.971H4.618c-1.667 0-3.048 1.346-3.048 2.971v23.771c0 1.625 1.381 2.971 3.048 2.971h12.191c1.667 0 3.048-1.346 3.048-2.971V4.114z"/></symbol><symbol id="icon-search" viewBox="0 0 32 32"><path fill="#e1541b" style="fill:var(--color3,#e1541b)" d="M22.302 13.714c0 4.643-3.778 8.421-8.421 8.421S5.46 18.357 5.46 13.714c0-4.643 3.778-8.421 8.421-8.421s8.421 3.778 8.421 8.421zm9.624 15.639a2.42 2.42 0 0 0-.696-1.692l-6.447-6.447a13.199 13.199 0 0 0 2.331-7.5c0-7.312-5.921-13.233-13.233-13.233S.648 6.402.648 13.714s5.921 13.233 13.233 13.233c2.669 0 5.301-.808 7.5-2.331l6.447 6.428a2.36 2.36 0 0 0 1.692.714 2.423 2.423 0 0 0 2.406-2.406z"/></symbol><symbol id="icon-info-burger" viewBox="0 0 40 32"><path fill="#707070" style="fill:var(--color1,#707070)" d="M40 27.324c0-.724-.6-1.323-1.324-1.323H1.323c-.724 0-1.324.6-1.324 1.323v2.647c0 .724.6 1.323 1.324 1.323h37.353c.724 0 1.324-.6 1.324-1.323v-2.647zm0-12.647c0-.724-.6-1.324-1.324-1.324H1.323c-.724 0-1.324.6-1.324 1.324v2.647c0 .724.6 1.324 1.324 1.324h37.353c.724 0 1.324-.6 1.324-1.324v-2.647zM40 2.03c0-.724-.6-1.324-1.324-1.324H1.323c-.724 0-1.324.6-1.324 1.324v2.647c0 .724.6 1.324 1.324 1.324h37.353c.724 0 1.324-.6 1.324-1.324V2.03z"/></symbol><symbol id="icon-burger" viewBox="0 0 29 32"><path fill="#2a86e5" style="fill:var(--color2,#2a86e5)" d="M28.192 24.45a.904.904 0 0 0-.898-.898H1.964a.904.904 0 0 0-.898.898v1.795c0 .491.407.898.898.898h25.33a.904.904 0 0 0 .898-.898V24.45zm0-9.643a.904.904 0 0 0-.898-.898H1.964a.904.904 0 0 0-.898.898v1.795c0 .491.407.898.898.898h25.33a.904.904 0 0 0 .898-.898v-1.795zm0-9.643a.904.904 0 0 0-.898-.898H1.964a.904.904 0 0 0-.898.898v1.795c0 .491.407.898.898.898h25.33a.904.904 0 0 0 .898-.898V5.164z"/></symbol><symbol id="icon-close" viewBox="0 0 29 32"><path fill="#2a86e5" style="fill:var(--color2,#2a86e5)" d="M26.363 26.169a.904.904 0 0 0 0-1.269L5.435 3.972a.904.904 0 0 0-1.269 0L2.897 5.241a.904.904 0 0 0 0 1.269l20.928 20.928a.904.904 0 0 0 1.269 0l1.269-1.269z"/><path fill="#2a86e5" style="fill:var(--color2,#2a86e5)" d="M4.165 27.439a.904.904 0 0 0 1.269 0L26.362 6.511a.904.904 0 0 0 0-1.269l-1.269-1.269a.904.904 0 0 0-1.269 0L2.896 24.901a.904.904 0 0 0 0 1.269l1.269 1.269z"/></symbol></defs></svg>