<svg width="17" height="17" fill="none" xmlns="http://www.w3.org/2000/svg"><path fill-rule="evenodd" clip-rule="evenodd" d="M8.5 1.25c.262 0 .474.212.474.473v1.232a.473.473 0 0 1-.947 0V1.723c0-.261.212-.473.474-.473ZM3.374 3.373a.473.473 0 0 1 .67 0l.874.875a.473.473 0 1 1-.67.67l-.874-.876a.473.473 0 0 1 0-.67Zm10.256 0a.473.473 0 0 1 0 .67l-.875.874a.473.473 0 1 1-.67-.67l.876-.874a.473.473 0 0 1 .67 0ZM6.526 5.546a3.554 3.554 0 1 1 3.95 5.91 3.554 3.554 0 0 1-3.95-5.91ZM1.25 8.5c0-.262.212-.474.473-.474h1.232a.473.473 0 0 1 0 .947H1.723a.473.473 0 0 1-.473-.473Zm12.322 0c0-.262.212-.474.474-.474h1.23a.474.474 0 0 1 0 .947h-1.23a.473.473 0 0 1-.474-.473Zm-8.655 3.584a.473.473 0 0 1 0 .67l-.875.874a.473.473 0 0 1-.67-.67l.876-.874a.473.473 0 0 1 .67 0Zm7.168 0a.473.473 0 0 1 .67 0l.874.875a.473.473 0 0 1-.67.67l-.874-.876a.473.473 0 0 1 0-.67ZM8.5 13.572c.261 0 .473.212.473.474v1.23a.473.473 0 1 1-.947 0v-1.23c0-.262.212-.474.474-.474Z" fill="#fff"/></svg>