<svg aria-hidden="true" style="position: absolute; width: 0; height: 0; overflow: hidden;" version="1.1" xmlns="http://www.w3.org/2000/svg" xmlns:xlink="http://www.w3.org/1999/xlink">
<defs>
<symbol id="icon-time" viewBox="0 0 32 32">
<path d="M18.667 8.667c0-0.375-0.292-0.667-0.667-0.667h-1.333c-0.375 0-0.667 0.292-0.667 0.667v7.333h-4.667c-0.375 0-0.667 0.292-0.667 0.667v1.333c0 0.375 0.292 0.667 0.667 0.667h6.667c0.375 0 0.667-0.292 0.667-0.667v-9.333zM27.333 16c0 6.25-5.083 11.333-11.333 11.333s-11.333-5.083-11.333-11.333c0-6.25 5.083-11.333 11.333-11.333s11.333 5.083 11.333 11.333zM32 16c0-8.833-7.167-16-16-16s-16 7.167-16 16c0 8.833 7.167 16 16 16s16-7.167 16-16z"></path>
</symbol>
<symbol id="icon-person" viewBox="0 0 32 32">
<path d="M28.308 24.981c0-5.058-1.25-10.904-6.288-10.904-1.558 1.519-3.673 2.462-6.019 2.462s-4.462-0.942-6.019-2.462c-5.038 0-6.288 5.846-6.288 10.904 0 2.808 1.846 5.096 4.096 5.096h16.423c2.25 0 4.096-2.288 4.096-5.096zM23.385 7.923c0-4.077-3.308-7.385-7.385-7.385s-7.385 3.308-7.385 7.385c0 4.077 3.308 7.385 7.385 7.385s7.385-3.308 7.385-7.385z"></path>
</symbol>
<symbol id="icon-apple" viewBox="0 0 32 32">
<path d="M20.485 20.691c-0.868-0.265-1.647-0.882-2.323-1.853s-1.015-2.074-1.015-3.279c0-1.118 0.324-2.132 0.956-3.044 0.353-0.515 0.912-1.088 1.676-1.735-0.5-0.618-1.015-1.118-1.529-1.471-0.912-0.632-1.956-0.956-3.132-0.956-0.721 0-1.574 0.176-2.544 0.5-0.971 0.338-1.676 0.5-2.103 0.5-0.338 0-1.015-0.147-2.029-0.441-1.029-0.294-1.882-0.441-2.603-0.441-1.691 0-3.074 0.706-4.176 2.118-1.103 1.426-1.662 3.25-1.662 5.5 0 2.412 0.735 4.868 2.162 7.397 1.456 2.529 2.912 3.809 4.426 3.809 0.485 0 1.132-0.162 1.941-0.5 0.794-0.324 1.5-0.485 2.088-0.485 0.603 0 1.353 0.147 2.221 0.471 0.882 0.309 1.559 0.471 2.059 0.471 1.25 0 2.515-0.956 3.779-2.882 0.853-1.279 1.441-2.515 1.809-3.676zM14.956 3.441c0-0.103-0.015-0.191-0.015-0.294-0.015-0.088-0.044-0.191-0.074-0.324-1.706 0.397-2.941 1.118-3.676 2.176s-1.118 2.324-1.147 3.779c0.691-0.059 1.191-0.147 1.529-0.25 0.529-0.176 1.059-0.529 1.588-1.059 0.618-0.618 1.074-1.294 1.368-2.029 0.279-0.721 0.426-1.397 0.426-2z"></path>
</symbol>
<symbol id="icon-android" viewBox="0 0 32 32">
<path d="M8.597 10.264c-0.292 0-0.528-0.25-0.528-0.542s0.236-0.542 0.528-0.542c0.306 0 0.542 0.25 0.542 0.542s-0.236 0.542-0.542 0.542zM14.458 10.264c-0.306 0-0.542-0.25-0.542-0.542s0.236-0.542 0.542-0.542c0.292 0 0.528 0.25 0.528 0.542s-0.236 0.542-0.528 0.542zM3.181 12.819c-0.792 0-1.431 0.639-1.431 1.417v5.972c0 0.792 0.639 1.431 1.431 1.431s1.417-0.639 1.417-1.431v-5.972c0-0.778-0.639-1.417-1.417-1.417zM17.903 13.083h-12.75v9.25c0 0.847 0.681 1.528 1.528 1.528h1.028l0.014 3.153c0 0.792 0.639 1.431 1.417 1.431 0.792 0 1.431-0.639 1.431-1.431v-3.153h1.917v3.153c0 0.792 0.639 1.431 1.431 1.431s1.431-0.639 1.431-1.431v-3.153h1.042c0.833 0 1.514-0.681 1.514-1.528v-9.25zM14.681 7.458l0.986-1.819c0.056-0.097 0.028-0.222-0.069-0.278-0.097-0.042-0.222-0.014-0.278 0.083l-1 1.833c-0.847-0.375-1.792-0.583-2.792-0.583s-1.944 0.208-2.792 0.583l-1-1.833c-0.056-0.097-0.181-0.125-0.278-0.083-0.097 0.056-0.125 0.181-0.069 0.278l0.986 1.819c-1.958 1-3.278 2.917-3.278 5.125h12.847c0-2.208-1.32-4.125-3.264-5.125zM21.306 14.236c0-0.792-0.639-1.417-1.431-1.417-0.778 0-1.417 0.625-1.417 1.417v5.972c0 0.792 0.639 1.431 1.417 1.431 0.792 0 1.431-0.639 1.431-1.431v-5.972z"></path>
</symbol>
<symbol id="icon-pot" viewBox="0 0 32 32">
<path d="M20.912 7.162c-0.147-0.338-0.485-0.574-0.868-0.574h-18.823c-0.382 0-0.721 0.235-0.868 0.574-0.147 0.353-0.074 0.765 0.206 1.029l7.25 7.25v7.147c0 0.25 0.103 0.485 0.279 0.662l3.765 3.765c0.176 0.191 0.412 0.279 0.662 0.279 0.118 0 0.25-0.029 0.368-0.074 0.338-0.147 0.574-0.485 0.574-0.868v-10.912l7.25-7.25c0.279-0.265 0.353-0.676 0.206-1.029z"></path>
</symbol>
<symbol id="icon-phone" viewBox="0 0 32 32">
<path d="M12.619 27.886c0 1.021-0.857 1.857-1.905 1.857s-1.905-0.836-1.905-1.857c0-1.021 0.857-1.857 1.905-1.857s1.905 0.836 1.905 1.857zM17.571 24.171c0 0.395-0.357 0.743-0.762 0.743h-12.191c-0.405 0-0.762-0.348-0.762-0.743v-16.343c0-0.395 0.357-0.743 0.762-0.743h12.191c0.405 0 0.762 0.348 0.762 0.743v16.343zM13 4.486c0 0.209-0.167 0.371-0.381 0.371h-3.809c-0.214 0-0.381-0.162-0.381-0.371s0.167-0.371 0.381-0.371h3.809c0.214 0 0.381 0.162 0.381 0.371zM19.857 4.114c0-1.625-1.381-2.971-3.048-2.971h-12.191c-1.667 0-3.048 1.346-3.048 2.971v23.771c0 1.625 1.381 2.971 3.048 2.971h12.191c1.667 0 3.048-1.346 3.048-2.971v-23.771z"></path>
</symbol>
<symbol id="icon-search" viewBox="0 0 32 32">
<path fill="#e1541b" style="fill: var(--color3, #e1541b)" d="M22.302 13.714c0 4.643-3.778 8.421-8.421 8.421s-8.421-3.778-8.421-8.421c0-4.643 3.778-8.421 8.421-8.421s8.421 3.778 8.421 8.421zM31.926 29.353c0-0.639-0.263-1.259-0.696-1.692l-6.447-6.447c1.523-2.199 2.331-4.831 2.331-7.5 0-7.312-5.921-13.233-13.233-13.233s-13.233 5.921-13.233 13.233c0 7.312 5.921 13.233 13.233 13.233 2.669 0 5.301-0.808 7.5-2.331l6.447 6.428c0.432 0.451 1.053 0.714 1.692 0.714 1.316 0 2.406-1.090 2.406-2.406z"></path>
</symbol>
<symbol id="icon-info-burger" viewBox="0 0 40 32">
<path fill="#707070" style="fill: var(--color1, #707070)" d="M40 27.324c0-0.724-0.6-1.323-1.324-1.323h-37.353c-0.724 0-1.324 0.6-1.324 1.323v2.647c0 0.724 0.6 1.323 1.324 1.323h37.353c0.724 0 1.324-0.6 1.324-1.323v-2.647zM40 14.677c0-0.724-0.6-1.324-1.324-1.324h-37.353c-0.724 0-1.324 0.6-1.324 1.324v2.647c0 0.724 0.6 1.324 1.324 1.324h37.353c0.724 0 1.324-0.6 1.324-1.324v-2.647zM40 2.030c0-0.724-0.6-1.324-1.324-1.324h-37.353c-0.724 0-1.324 0.6-1.324 1.324v2.647c0 0.724 0.6 1.324 1.324 1.324h37.353c0.724 0 1.324-0.6 1.324-1.324v-2.647z"></path>
</symbol>
<symbol id="icon-close-info" viewBox="0 0 29 32">
<path d="M26.363 26.169c0.347-0.347 0.347-0.922 0-1.269l-20.928-20.928c-0.347-0.347-0.922-0.347-1.269 0l-1.269 1.269c-0.347 0.347-0.347 0.922 0 1.269l20.928 20.928c0.347 0.347 0.922 0.347 1.269 0l1.269-1.269z"></path>
<path d="M4.165 27.439c0.347 0.347 0.922 0.347 1.269 0l20.928-20.928c0.347-0.347 0.347-0.922 0-1.269l-1.269-1.269c-0.347-0.347-0.922-0.347-1.269 0l-20.928 20.928c-0.347 0.347-0.347 0.922 0 1.269l1.269 1.269z"></path>
</symbol>
<symbol id="icon-burger" viewBox="0 0 29 32">
<path fill="#2a86e5" style="fill: var(--color2, #2a86e5)" d="M28.192 24.45c0-0.491-0.407-0.898-0.898-0.898h-25.33c-0.491 0-0.898 0.407-0.898 0.898v1.795c0 0.491 0.407 0.898 0.898 0.898h25.33c0.491 0 0.898-0.407 0.898-0.898v-1.795zM28.192 14.807c0-0.491-0.407-0.898-0.898-0.898h-25.33c-0.491 0-0.898 0.407-0.898 0.898v1.795c0 0.491 0.407 0.898 0.898 0.898h25.33c0.491 0 0.898-0.407 0.898-0.898v-1.795zM28.192 5.164c0-0.491-0.407-0.898-0.898-0.898h-25.33c-0.491 0-0.898 0.407-0.898 0.898v1.795c0 0.491 0.407 0.898 0.898 0.898h25.33c0.491 0 0.898-0.407 0.898-0.898v-1.795z"></path>
</symbol>
<symbol id="icon-close" viewBox="0 0 29 32">
<path fill="#2a86e5" style="fill: var(--color2, #2a86e5)" d="M26.363 26.169c0.347-0.347 0.347-0.922 0-1.269l-20.928-20.928c-0.347-0.347-0.922-0.347-1.269 0l-1.269 1.269c-0.347 0.347-0.347 0.922 0 1.269l20.928 20.928c0.347 0.347 0.922 0.347 1.269 0l1.269-1.269z"></path>
<path fill="#2a86e5" style="fill: var(--color2, #2a86e5)" d="M4.165 27.439c0.347 0.347 0.922 0.347 1.269 0l20.928-20.928c0.347-0.347 0.347-0.922 0-1.269l-1.269-1.269c-0.347-0.347-0.922-0.347-1.269 0l-20.928 20.928c-0.347 0.347-0.347 0.922 0 1.269l1.269 1.269z"></path>
</symbol>
<symbol id="icon-download" viewBox="0 0 36 32">
<path d="M34.292 21.58c-0.383-0.383-0.848-0.574-1.395-0.574h-9.518l-2.79 2.79c-0.793 0.766-1.723 1.149-2.79 1.149s-1.997-0.383-2.79-1.149l-2.769-2.79h-9.539c-0.547 0-1.012 0.192-1.395 0.574s-0.574 0.848-0.574 1.395v6.564c0 0.547 0.191 1.012 0.574 1.395s0.848 0.574 1.395 0.574h30.195c0.547 0 1.012-0.191 1.395-0.574s0.575-0.848 0.575-1.395v-6.564c0-0.547-0.191-1.012-0.575-1.395zM26.6 28.493c-0.26 0.26-0.568 0.39-0.924 0.39s-0.663-0.13-0.923-0.39c-0.26-0.26-0.389-0.567-0.389-0.923s0.13-0.663 0.389-0.923c0.26-0.26 0.567-0.39 0.923-0.39s0.663 0.13 0.924 0.39c0.26 0.259 0.39 0.567 0.39 0.923s-0.13 0.663-0.39 0.923zM31.851 28.493c-0.26 0.26-0.567 0.39-0.923 0.39s-0.663-0.13-0.923-0.39c-0.26-0.26-0.389-0.567-0.389-0.923s0.13-0.663 0.389-0.923c0.26-0.26 0.567-0.39 0.923-0.39s0.663 0.13 0.923 0.39c0.26 0.259 0.39 0.567 0.39 0.923s-0.13 0.663-0.39 0.923z"></path>
<path d="M16.877 21.929c0.246 0.26 0.554 0.39 0.923 0.39s0.677-0.13 0.923-0.39l9.19-9.19c0.424-0.397 0.52-0.875 0.287-1.436-0.232-0.533-0.636-0.8-1.21-0.8h-5.251v-9.19c0-0.355-0.13-0.663-0.39-0.923s-0.568-0.39-0.923-0.39h-5.252c-0.355 0-0.663 0.13-0.923 0.39s-0.39 0.567-0.39 0.923v9.19h-5.251c-0.575 0-0.978 0.267-1.21 0.8-0.232 0.56-0.137 1.039 0.287 1.436l9.19 9.19z"></path>
</symbol>
</defs>
</svg>
