<svg aria-hidden="true" style="position: absolute; width: 0; height: 0; overflow: hidden;" version="1.1" xmlns="http://www.w3.org/2000/svg" xmlns:xlink="http://www.w3.org/1999/xlink">
<defs>
<symbol id="icon-wi-fi" viewBox="0 0 32 32">
<path d="M0 0v5.818c14.444 0 26.182 11.738 26.182 26.182h5.818c0-17.673-14.327-32-32-32zM0 10.182v5.818c8.829 0 16 7.171 16 16h5.818c0-12.044-9.775-21.818-21.818-21.818zM4.364 23.273c-1.157 0-2.267 0.46-3.086 1.278s-1.278 1.928-1.278 3.085c0 1.157 0.46 2.267 1.278 3.085s1.928 1.278 3.086 1.278 2.267-0.46 3.086-1.278c0.818-0.818 1.278-1.928 1.278-3.085s-0.46-2.267-1.278-3.085c-0.818-0.818-1.928-1.278-3.086-1.278z"></path>
</symbol>
<symbol id="icon-mail" viewBox="0 0 40 32">
<path d="M8.081 0.991v5.425l-7.485 2.695c-0.482 0.173-0.721 0.739-0.531 1.256l4.425 12.027v8.605c0 0.266 0.107 0.52 0.296 0.708s0.447 0.293 0.716 0.293h28.52c0.268 0 0.526-0.105 0.716-0.293s0.296-0.443 0.296-0.708l0.001-4.93 4.456-16.455c0.144-0.532-0.144-1.078-0.64-1.206l-7.408-1.971v-5.445c-0.002-0.263-0.109-0.515-0.298-0.701s-0.444-0.29-0.711-0.289h-21.343c-0.267 0-0.522 0.104-0.712 0.289s-0.297 0.437-0.3 0.701zM23.445 4.307l-0.766-2.082c-0.191-0.518-0.741-0.799-1.223-0.625l-11.991 4.318v-4.551h20.596v4.701l-6.615-1.76zM34.743 8.958c-0.19-0.188-0.447-0.293-0.716-0.293h-8.978l-1.026-2.79 14.038 3.736-3.024 11.165 0.002-11.11c0-0.266-0.107-0.52-0.296-0.708zM1.491 10.242l3.178-1.144c-0.116 0.166-0.179 0.364-0.179 0.568v8.727l-2.999-8.151zM21.506 3.035l2.072 5.63h-17.705l15.633-5.63zM29.764 17.077c-0.055 0.022-0.113 0.034-0.172 0.034h-8.535v-2.222h8.535c0.119 0 0.233 0.047 0.318 0.13s0.132 0.196 0.132 0.314v1.333c0 0.058-0.011 0.116-0.034 0.17s-0.056 0.103-0.097 0.144c-0.042 0.041-0.091 0.074-0.146 0.097zM29.909 25.425c-0.084 0.083-0.198 0.13-0.317 0.13h-8.535v-2.222h8.535c0.119 0 0.233 0.047 0.318 0.13s0.132 0.196 0.132 0.314v1.334c-0 0.118-0.048 0.231-0.132 0.314zM31.257 21.202c-0.084 0.083-0.199 0.13-0.318 0.13h-9.883v-2.222h9.883c0.119 0 0.233 0.047 0.318 0.13s0.132 0.196 0.132 0.314v1.333c0 0.118-0.047 0.231-0.132 0.314zM18.58 20.344c0 3.046-2.047 5.212-5.161 5.212-0.713 0.008-1.421-0.123-2.083-0.387s-1.263-0.656-1.771-1.152c-0.507-0.496-0.91-1.087-1.185-1.738s-0.417-1.35-0.417-2.056c0-0.706 0.142-1.405 0.417-2.056s0.678-1.242 1.185-1.738c0.507-0.496 1.109-0.887 1.771-1.152s1.369-0.396 2.083-0.387c1.338-0.016 2.631 0.48 3.607 1.386l-1.538 1.522c-0.556-0.525-1.299-0.812-2.068-0.8-1.761 0-3.192 1.477-3.192 3.222s1.428 3.222 3.192 3.222c1.583 0 2.667-0.885 2.906-2.106h-2.906v-2.003h5.075c0.055 0.334 0.084 0.672 0.085 1.010z"></path>
</symbol>
<symbol id="icon-youtube" viewBox="0 0 48 32">
<path d="M40.561 0.955c-3.551-0.955-17.792-0.955-17.792-0.955s-14.24 0-17.792 0.955c-1.959 0.526-3.502 2.075-4.026 4.042-0.952 3.565-0.952 11.003-0.952 11.003s0 7.438 0.952 11.003c0.524 1.967 2.067 3.516 4.026 4.042 3.551 0.955 17.792 0.955 17.792 0.955s14.24 0 17.792-0.955c1.959-0.526 3.502-2.075 4.026-4.042 0.951-3.565 0.951-11.003 0.951-11.003s0-7.438-0.951-11.003c-0.524-1.967-2.067-3.516-4.026-4.042zM30.009 16l-11.902 6.753v-13.506l11.902 6.754z"></path>
</symbol>
<symbol id="icon-insta" viewBox="0 0 32 32">
<path d="M9.374 0.112c-1.702 0.080-2.865 0.352-3.881 0.751-1.052 0.41-1.943 0.96-2.83 1.85s-1.433 1.782-1.84 2.836c-0.394 1.019-0.661 2.182-0.736 3.885s-0.092 2.251-0.084 6.596c0.008 4.345 0.028 4.89 0.11 6.596 0.081 1.702 0.352 2.864 0.751 3.881 0.411 1.052 0.96 1.943 1.851 2.83s1.782 1.432 2.838 1.84c1.018 0.393 2.181 0.662 3.884 0.736s2.251 0.092 6.595 0.084c4.344-0.008 4.891-0.028 6.597-0.109s2.863-0.354 3.88-0.751c1.052-0.411 1.944-0.96 2.831-1.851s1.432-1.784 1.839-2.838c0.394-1.018 0.662-2.181 0.736-3.883 0.075-1.708 0.092-2.253 0.084-6.597s-0.028-4.889-0.109-6.595-0.352-2.865-0.751-3.882c-0.411-1.052-0.96-1.942-1.85-2.83s-1.784-1.434-2.837-1.839c-1.018-0.394-2.181-0.662-3.884-0.736s-2.251-0.092-6.597-0.084-4.889 0.027-6.596 0.11zM9.56 29.036c-1.56-0.068-2.407-0.327-2.972-0.544-0.748-0.288-1.28-0.636-1.843-1.193s-0.908-1.092-1.2-1.837c-0.219-0.565-0.483-1.41-0.556-2.971-0.079-1.686-0.096-2.192-0.105-6.464s0.007-4.777 0.081-6.464c0.067-1.559 0.327-2.407 0.544-2.971 0.288-0.748 0.635-1.28 1.193-1.842s1.091-0.908 1.838-1.2c0.564-0.22 1.41-0.482 2.969-0.556 1.687-0.080 2.193-0.096 6.464-0.105s4.778 0.007 6.466 0.081c1.559 0.068 2.407 0.326 2.971 0.544 0.748 0.288 1.28 0.634 1.842 1.193s0.909 1.090 1.201 1.838c0.221 0.562 0.482 1.408 0.556 2.968 0.080 1.687 0.099 2.193 0.106 6.464s-0.007 4.778-0.081 6.464c-0.068 1.56-0.327 2.407-0.544 2.973-0.288 0.747-0.635 1.28-1.194 1.842s-1.091 0.908-1.838 1.2c-0.563 0.22-1.41 0.482-2.968 0.557-1.687 0.079-2.193 0.096-6.466 0.105s-4.777-0.008-6.464-0.081zM22.604 7.449c0.001 0.38 0.114 0.751 0.326 1.066s0.512 0.561 0.863 0.706 0.737 0.182 1.11 0.107c0.372-0.075 0.714-0.258 0.982-0.527s0.45-0.612 0.524-0.984 0.035-0.759-0.112-1.109c-0.146-0.351-0.393-0.65-0.709-0.86s-0.688-0.322-1.067-0.322c-0.509 0.001-0.997 0.204-1.356 0.565s-0.561 0.849-0.56 1.358zM7.785 16.016c0.009 4.538 3.694 8.208 8.231 8.199s8.209-3.694 8.201-8.231c-0.009-4.538-3.695-8.209-8.232-8.2s-8.208 3.695-8.199 8.232zM10.667 16.010c-0.002-1.055 0.309-2.087 0.893-2.965s1.416-1.563 2.39-1.969c0.974-0.406 2.046-0.513 3.081-0.31s1.986 0.71 2.734 1.454c0.747 0.744 1.257 1.694 1.465 2.728s0.104 2.107-0.297 3.082c-0.402 0.975-1.084 1.81-1.96 2.397s-1.907 0.903-2.961 0.905c-0.7 0.001-1.394-0.135-2.042-0.402s-1.236-0.658-1.733-1.153c-0.496-0.494-0.89-1.081-1.16-1.728s-0.409-1.34-0.41-2.040z"></path>
</symbol>
<symbol id="icon-twitter" viewBox="0 0 40 32">
<path d="M38.285 3.883c-1.365 0.588-2.848 1.012-4.378 1.177 1.577-0.942 2.778-2.425 3.342-4.19-1.459 0.871-3.107 1.506-4.825 1.836-1.389-1.483-3.366-2.401-5.555-2.401-4.213 0-7.603 3.413-7.603 7.603 0 0.588 0.071 1.177 0.188 1.742-6.308-0.33-11.934-3.343-15.677-7.956-0.659 1.13-1.036 2.425-1.036 3.837 0 2.636 1.342 4.967 3.39 6.332-1.248-0.047-2.425-0.4-3.437-0.965 0 0.024 0 0.071 0 0.094 0 3.696 2.613 6.756 6.097 7.462-0.636 0.165-1.318 0.259-2.001 0.259-0.494 0-0.965-0.047-1.436-0.118 0.965 3.013 3.766 5.202 7.109 5.273-2.613 2.048-5.885 3.248-9.439 3.248-0.636 0-1.224-0.023-1.836-0.094 3.366 2.166 7.368 3.413 11.675 3.413 13.982 0 21.632-11.581 21.632-21.632 0-0.33 0-0.659-0.024-0.989 1.483-1.083 2.778-2.425 3.813-3.931z"></path>
</symbol>
<symbol id="icon-facebook" viewBox="0 0 16 32">
<path d="M15.752 1.051c-0.477-0.071-2.119-0.212-4.025-0.212-3.99 0-6.726 2.436-6.726 6.903v3.849h-4.502v5.226h4.502v13.399h5.402v-13.399h4.484l0.689-5.226h-5.173v-3.337c0-1.501 0.406-2.542 2.578-2.542h2.772v-4.661z"></path>
</symbol>
<symbol id="icon-time" viewBox="0 0 32 32">
<path d="M18.667 8.667c0-0.375-0.292-0.667-0.667-0.667h-1.333c-0.375 0-0.667 0.292-0.667 0.667v7.333h-4.667c-0.375 0-0.667 0.292-0.667 0.667v1.333c0 0.375 0.292 0.667 0.667 0.667h6.667c0.375 0 0.667-0.292 0.667-0.667v-9.333zM27.333 16c0 6.25-5.083 11.333-11.333 11.333s-11.333-5.083-11.333-11.333c0-6.25 5.083-11.333 11.333-11.333s11.333 5.083 11.333 11.333zM32 16c0-8.833-7.167-16-16-16s-16 7.167-16 16c0 8.833 7.167 16 16 16s16-7.167 16-16z"></path>
</symbol>
<symbol id="icon-person" viewBox="0 0 32 32">
<path d="M28.308 24.981c0-5.058-1.25-10.904-6.288-10.904-1.558 1.519-3.673 2.462-6.019 2.462s-4.462-0.942-6.019-2.462c-5.038 0-6.288 5.846-6.288 10.904 0 2.808 1.846 5.096 4.096 5.096h16.423c2.25 0 4.096-2.288 4.096-5.096zM23.385 7.923c0-4.077-3.308-7.385-7.385-7.385s-7.385 3.308-7.385 7.385c0 4.077 3.308 7.385 7.385 7.385s7.385-3.308 7.385-7.385z"></path>
</symbol>
<symbol id="icon-apple" viewBox="0 0 32 32">
<path d="M20.485 20.691c-0.868-0.265-1.647-0.882-2.323-1.853s-1.015-2.074-1.015-3.279c0-1.118 0.324-2.132 0.956-3.044 0.353-0.515 0.912-1.088 1.676-1.735-0.5-0.618-1.015-1.118-1.529-1.471-0.912-0.632-1.956-0.956-3.132-0.956-0.721 0-1.574 0.176-2.544 0.5-0.971 0.338-1.676 0.5-2.103 0.5-0.338 0-1.015-0.147-2.029-0.441-1.029-0.294-1.882-0.441-2.603-0.441-1.691 0-3.074 0.706-4.176 2.118-1.103 1.426-1.662 3.25-1.662 5.5 0 2.412 0.735 4.868 2.162 7.397 1.456 2.529 2.912 3.809 4.426 3.809 0.485 0 1.132-0.162 1.941-0.5 0.794-0.324 1.5-0.485 2.088-0.485 0.603 0 1.353 0.147 2.221 0.471 0.882 0.309 1.559 0.471 2.059 0.471 1.25 0 2.515-0.956 3.779-2.882 0.853-1.279 1.441-2.515 1.809-3.676zM14.956 3.441c0-0.103-0.015-0.191-0.015-0.294-0.015-0.088-0.044-0.191-0.074-0.324-1.706 0.397-2.941 1.118-3.676 2.176s-1.118 2.324-1.147 3.779c0.691-0.059 1.191-0.147 1.529-0.25 0.529-0.176 1.059-0.529 1.588-1.059 0.618-0.618 1.074-1.294 1.368-2.029 0.279-0.721 0.426-1.397 0.426-2z"></path>
</symbol>
<symbol id="icon-android" viewBox="0 0 32 32">
<path d="M8.597 10.264c-0.292 0-0.528-0.25-0.528-0.542s0.236-0.542 0.528-0.542c0.306 0 0.542 0.25 0.542 0.542s-0.236 0.542-0.542 0.542zM14.458 10.264c-0.306 0-0.542-0.25-0.542-0.542s0.236-0.542 0.542-0.542c0.292 0 0.528 0.25 0.528 0.542s-0.236 0.542-0.528 0.542zM3.181 12.819c-0.792 0-1.431 0.639-1.431 1.417v5.972c0 0.792 0.639 1.431 1.431 1.431s1.417-0.639 1.417-1.431v-5.972c0-0.778-0.639-1.417-1.417-1.417zM17.903 13.083h-12.75v9.25c0 0.847 0.681 1.528 1.528 1.528h1.028l0.014 3.153c0 0.792 0.639 1.431 1.417 1.431 0.792 0 1.431-0.639 1.431-1.431v-3.153h1.917v3.153c0 0.792 0.639 1.431 1.431 1.431s1.431-0.639 1.431-1.431v-3.153h1.042c0.833 0 1.514-0.681 1.514-1.528v-9.25zM14.681 7.458l0.986-1.819c0.056-0.097 0.028-0.222-0.069-0.278-0.097-0.042-0.222-0.014-0.278 0.083l-1 1.833c-0.847-0.375-1.792-0.583-2.792-0.583s-1.944 0.208-2.792 0.583l-1-1.833c-0.056-0.097-0.181-0.125-0.278-0.083-0.097 0.056-0.125 0.181-0.069 0.278l0.986 1.819c-1.958 1-3.278 2.917-3.278 5.125h12.847c0-2.208-1.32-4.125-3.264-5.125zM21.306 14.236c0-0.792-0.639-1.417-1.431-1.417-0.778 0-1.417 0.625-1.417 1.417v5.972c0 0.792 0.639 1.431 1.417 1.431 0.792 0 1.431-0.639 1.431-1.431v-5.972z"></path>
</symbol>
<symbol id="icon-pot" viewBox="0 0 32 32">
<path d="M20.912 7.162c-0.147-0.338-0.485-0.574-0.868-0.574h-18.823c-0.382 0-0.721 0.235-0.868 0.574-0.147 0.353-0.074 0.765 0.206 1.029l7.25 7.25v7.147c0 0.25 0.103 0.485 0.279 0.662l3.765 3.765c0.176 0.191 0.412 0.279 0.662 0.279 0.118 0 0.25-0.029 0.368-0.074 0.338-0.147 0.574-0.485 0.574-0.868v-10.912l7.25-7.25c0.279-0.265 0.353-0.676 0.206-1.029z"></path>
</symbol>
<symbol id="icon-phone" viewBox="0 0 32 32">
<path d="M12.619 27.886c0 1.021-0.857 1.857-1.905 1.857s-1.905-0.836-1.905-1.857c0-1.021 0.857-1.857 1.905-1.857s1.905 0.836 1.905 1.857zM17.571 24.171c0 0.395-0.357 0.743-0.762 0.743h-12.191c-0.405 0-0.762-0.348-0.762-0.743v-16.343c0-0.395 0.357-0.743 0.762-0.743h12.191c0.405 0 0.762 0.348 0.762 0.743v16.343zM13 4.486c0 0.209-0.167 0.371-0.381 0.371h-3.809c-0.214 0-0.381-0.162-0.381-0.371s0.167-0.371 0.381-0.371h3.809c0.214 0 0.381 0.162 0.381 0.371zM19.857 4.114c0-1.625-1.381-2.971-3.048-2.971h-12.191c-1.667 0-3.048 1.346-3.048 2.971v23.771c0 1.625 1.381 2.971 3.048 2.971h12.191c1.667 0 3.048-1.346 3.048-2.971v-23.771z"></path>
</symbol>
<symbol id="icon-search" viewBox="0 0 32 32">
<path fill="#e1541b" style="fill: var(--color3, #e1541b)" d="M22.302 13.714c0 4.643-3.778 8.421-8.421 8.421s-8.421-3.778-8.421-8.421c0-4.643 3.778-8.421 8.421-8.421s8.421 3.778 8.421 8.421zM31.926 29.353c0-0.639-0.263-1.259-0.696-1.692l-6.447-6.447c1.523-2.199 2.331-4.831 2.331-7.5 0-7.312-5.921-13.233-13.233-13.233s-13.233 5.921-13.233 13.233c0 7.312 5.921 13.233 13.233 13.233 2.669 0 5.301-0.808 7.5-2.331l6.447 6.428c0.432 0.451 1.053 0.714 1.692 0.714 1.316 0 2.406-1.090 2.406-2.406z"></path>
</symbol>
<symbol id="icon-info-burger" viewBox="0 0 40 32">
<path fill="#707070" style="fill: var(--color1, #707070)" d="M40 27.324c0-0.724-0.6-1.323-1.324-1.323h-37.353c-0.724 0-1.324 0.6-1.324 1.323v2.647c0 0.724 0.6 1.323 1.324 1.323h37.353c0.724 0 1.324-0.6 1.324-1.323v-2.647zM40 14.677c0-0.724-0.6-1.324-1.324-1.324h-37.353c-0.724 0-1.324 0.6-1.324 1.324v2.647c0 0.724 0.6 1.324 1.324 1.324h37.353c0.724 0 1.324-0.6 1.324-1.324v-2.647zM40 2.030c0-0.724-0.6-1.324-1.324-1.324h-37.353c-0.724 0-1.324 0.6-1.324 1.324v2.647c0 0.724 0.6 1.324 1.324 1.324h37.353c0.724 0 1.324-0.6 1.324-1.324v-2.647z"></path>
</symbol>
<symbol id="icon-close-info" viewBox="0 0 29 32">
<path d="M26.363 26.169c0.347-0.347 0.347-0.922 0-1.269l-20.928-20.928c-0.347-0.347-0.922-0.347-1.269 0l-1.269 1.269c-0.347 0.347-0.347 0.922 0 1.269l20.928 20.928c0.347 0.347 0.922 0.347 1.269 0l1.269-1.269z"></path>
<path d="M4.165 27.439c0.347 0.347 0.922 0.347 1.269 0l20.928-20.928c0.347-0.347 0.347-0.922 0-1.269l-1.269-1.269c-0.347-0.347-0.922-0.347-1.269 0l-20.928 20.928c-0.347 0.347-0.347 0.922 0 1.269l1.269 1.269z"></path>
</symbol>
<symbol id="icon-burger" viewBox="0 0 29 32">
<path fill="#2a86e5" style="fill: var(--color2, #2a86e5)" d="M28.192 24.45c0-0.491-0.407-0.898-0.898-0.898h-25.33c-0.491 0-0.898 0.407-0.898 0.898v1.795c0 0.491 0.407 0.898 0.898 0.898h25.33c0.491 0 0.898-0.407 0.898-0.898v-1.795zM28.192 14.807c0-0.491-0.407-0.898-0.898-0.898h-25.33c-0.491 0-0.898 0.407-0.898 0.898v1.795c0 0.491 0.407 0.898 0.898 0.898h25.33c0.491 0 0.898-0.407 0.898-0.898v-1.795zM28.192 5.164c0-0.491-0.407-0.898-0.898-0.898h-25.33c-0.491 0-0.898 0.407-0.898 0.898v1.795c0 0.491 0.407 0.898 0.898 0.898h25.33c0.491 0 0.898-0.407 0.898-0.898v-1.795z"></path>
</symbol>
<symbol id="icon-close" viewBox="0 0 29 32">
<path fill="#2a86e5" style="fill: var(--color2, #2a86e5)" d="M26.363 26.169c0.347-0.347 0.347-0.922 0-1.269l-20.928-20.928c-0.347-0.347-0.922-0.347-1.269 0l-1.269 1.269c-0.347 0.347-0.347 0.922 0 1.269l20.928 20.928c0.347 0.347 0.922 0.347 1.269 0l1.269-1.269z"></path>
<path fill="#2a86e5" style="fill: var(--color2, #2a86e5)" d="M4.165 27.439c0.347 0.347 0.922 0.347 1.269 0l20.928-20.928c0.347-0.347 0.347-0.922 0-1.269l-1.269-1.269c-0.347-0.347-0.922-0.347-1.269 0l-20.928 20.928c-0.347 0.347-0.347 0.922 0 1.269l1.269 1.269z"></path>
</symbol>
<symbol id="icon-download" viewBox="0 0 36 32">
<path d="M34.292 21.58c-0.383-0.383-0.848-0.574-1.395-0.574h-9.518l-2.79 2.79c-0.793 0.766-1.723 1.149-2.79 1.149s-1.997-0.383-2.79-1.149l-2.769-2.79h-9.539c-0.547 0-1.012 0.192-1.395 0.574s-0.574 0.848-0.574 1.395v6.564c0 0.547 0.191 1.012 0.574 1.395s0.848 0.574 1.395 0.574h30.195c0.547 0 1.012-0.191 1.395-0.574s0.575-0.848 0.575-1.395v-6.564c0-0.547-0.191-1.012-0.575-1.395zM26.6 28.493c-0.26 0.26-0.568 0.39-0.924 0.39s-0.663-0.13-0.923-0.39c-0.26-0.26-0.389-0.567-0.389-0.923s0.13-0.663 0.389-0.923c0.26-0.26 0.567-0.39 0.923-0.39s0.663 0.13 0.924 0.39c0.26 0.259 0.39 0.567 0.39 0.923s-0.13 0.663-0.39 0.923zM31.851 28.493c-0.26 0.26-0.567 0.39-0.923 0.39s-0.663-0.13-0.923-0.39c-0.26-0.26-0.389-0.567-0.389-0.923s0.13-0.663 0.389-0.923c0.26-0.26 0.567-0.39 0.923-0.39s0.663 0.13 0.923 0.39c0.26 0.259 0.39 0.567 0.39 0.923s-0.13 0.663-0.39 0.923z"></path>
<path d="M16.877 21.929c0.246 0.26 0.554 0.39 0.923 0.39s0.677-0.13 0.923-0.39l9.19-9.19c0.424-0.397 0.52-0.875 0.287-1.436-0.232-0.533-0.636-0.8-1.21-0.8h-5.251v-9.19c0-0.355-0.13-0.663-0.39-0.923s-0.568-0.39-0.923-0.39h-5.252c-0.355 0-0.663 0.13-0.923 0.39s-0.39 0.567-0.39 0.923v9.19h-5.251c-0.575 0-0.978 0.267-1.21 0.8-0.232 0.56-0.137 1.039 0.287 1.436l9.19 9.19z"></path>
</symbol>
</defs>
</svg>
