<svg width="17" height="17" viewBox="0 0 17 17" fill="none" xmlns="http://www.w3.org/2000/svg">
<path d="M16.3113 8.891C16.1683 10.4367 15.5881 11.9098 14.6385 13.1378C13.6889 14.3658 12.4093 15.298 10.9493 15.8253C9.48924 16.3526 7.90925 16.4532 6.39414 16.1153C4.87903 15.7775 3.49147 15.0151 2.39382 13.9174C1.29616 12.8198 0.533801 11.4322 0.195936 9.91713C-0.141929 8.40202 -0.0413241 6.82202 0.485978 5.36201C1.01328 3.90199 1.94547 2.62233 3.17349 1.67276C4.4015 0.723184 5.87454 0.14297 7.42026 0C6.51482 1.22441 6.079 2.73318 6.19209 4.2518C6.30518 5.77043 6.95966 7.198 8.03646 8.2748C9.11326 9.35161 10.5408 10.0061 12.0595 10.1192C13.5781 10.2323 15.0869 9.79644 16.3113 8.891Z" fill="#183A5D"/>
</svg>
