<svg width="17" height="17" viewBox="0 0 17 17" fill="none" xmlns="http://www.w3.org/2000/svg">
<path fill-rule="evenodd" clip-rule="evenodd" d="M8.50095 1.25C8.76244 1.25 8.97443 1.46199 8.97443 1.72348V2.95455C8.97443 3.21604 8.76244 3.42803 8.50095 3.42803C8.23945 3.42803 8.02746 3.21604 8.02746 2.95455V1.72348C8.02746 1.46199 8.23945 1.25 8.50095 1.25ZM3.37258 3.37258C3.55749 3.18767 3.85728 3.18767 4.04219 3.37258L4.91719 4.24758C5.1021 4.43249 5.1021 4.73228 4.91719 4.91719C4.73228 5.1021 4.43249 5.1021 4.24758 4.91719L3.37258 4.04219C3.18767 3.85728 3.18767 3.55749 3.37258 3.37258ZM13.6293 3.37258C13.8142 3.55749 13.8142 3.85728 13.6293 4.04219L12.7543 4.91719C12.5694 5.1021 12.2696 5.1021 12.0847 4.91719C11.8998 4.73228 11.8998 4.43249 12.0847 4.24758L12.9597 3.37258C13.1446 3.18767 13.4444 3.18767 13.6293 3.37258ZM6.52646 5.54592C7.11091 5.15541 7.79804 4.94697 8.50095 4.94697C9.44352 4.94697 10.3475 5.32141 11.014 5.98791C11.6805 6.65441 12.0549 7.55837 12.0549 8.50095C12.0549 9.20386 11.8465 9.89098 11.456 10.4754C11.0655 11.0599 10.5104 11.5154 9.861 11.7844C9.21159 12.0534 8.497 12.1238 7.8076 11.9866C7.1182 11.8495 6.48494 11.511 5.98791 11.014C5.49087 10.517 5.15239 9.8837 5.01526 9.19429C4.87813 8.50489 4.94851 7.7903 5.2175 7.1409C5.48649 6.49149 5.94202 5.93644 6.52646 5.54592ZM1.25 8.50095C1.25 8.23945 1.46199 8.02746 1.72348 8.02746H2.95455C3.21604 8.02746 3.42803 8.23945 3.42803 8.50095C3.42803 8.76244 3.21604 8.97443 2.95455 8.97443H1.72348C1.46199 8.97443 1.25 8.76244 1.25 8.50095ZM13.572 8.50095C13.572 8.23945 13.784 8.02746 14.0455 8.02746H15.2765C15.538 8.02746 15.75 8.23945 15.75 8.50095C15.75 8.76244 15.538 8.97443 15.2765 8.97443H14.0455C13.784 8.97443 13.572 8.76244 13.572 8.50095ZM4.91719 12.0847C5.1021 12.2696 5.1021 12.5694 4.91719 12.7543L4.04219 13.6293C3.85728 13.8142 3.55749 13.8142 3.37258 13.6293C3.18767 13.4444 3.18767 13.1446 3.37258 12.9597L4.24758 12.0847C4.43249 11.8998 4.73228 11.8998 4.91719 12.0847ZM12.0847 12.0847C12.2696 11.8998 12.5694 11.8998 12.7543 12.0847L13.6293 12.9597C13.8142 13.1446 13.8142 13.4444 13.6293 13.6293C13.4444 13.8142 13.1446 13.8142 12.9597 13.6293L12.0847 12.7543C11.8998 12.5694 11.8998 12.2696 12.0847 12.0847ZM8.50095 13.572C8.76244 13.572 8.97443 13.784 8.97443 14.0455V15.2765C8.97443 15.538 8.76244 15.75 8.50095 15.75C8.23945 15.75 8.02746 15.538 8.02746 15.2765V14.0455C8.02746 13.784 8.23945 13.572 8.50095 13.572Z" fill="white"/>
</svg>
